<mxfile host="Electron" modified="2023-04-11T19:05:26.772Z" agent="Mozilla/5.0 (Windows NT 10.0; Win64; x64) AppleWebKit/537.36 (KHTML, like Gecko) draw.io/21.1.2 Chrome/106.0.5249.199 Electron/21.4.3 Safari/537.36" etag="XZroWNZCAMdn25GgkrrY" version="21.1.2" type="device">
  <diagram id="C5RBs43oDa-KdzZeNtuy" name="Page-1">
    <mxGraphModel dx="1195" dy="703" grid="1" gridSize="10" guides="1" tooltips="1" connect="1" arrows="1" fold="1" page="1" pageScale="1" pageWidth="827" pageHeight="1169" math="0" shadow="0">
      <root>
        <mxCell id="WIyWlLk6GJQsqaUBKTNV-0" />
        <mxCell id="WIyWlLk6GJQsqaUBKTNV-1" parent="WIyWlLk6GJQsqaUBKTNV-0" />
        <mxCell id="QhCB_V-oAfmcIfUx4NEu-0" value="" style="ellipse;shape=cloud;whiteSpace=wrap;html=1;" parent="WIyWlLk6GJQsqaUBKTNV-1" vertex="1">
          <mxGeometry x="520" y="12" width="260" height="200" as="geometry" />
        </mxCell>
        <mxCell id="QhCB_V-oAfmcIfUx4NEu-1" value="Client" style="html=1;whiteSpace=wrap;" parent="WIyWlLk6GJQsqaUBKTNV-1" vertex="1">
          <mxGeometry x="50" y="100" width="110" height="50" as="geometry" />
        </mxCell>
        <mxCell id="QhCB_V-oAfmcIfUx4NEu-2" value="Facade" style="swimlane;fontStyle=1;align=center;verticalAlign=top;childLayout=stackLayout;horizontal=1;startSize=26;horizontalStack=0;resizeParent=1;resizeParentMax=0;resizeLast=0;collapsible=1;marginBottom=0;whiteSpace=wrap;html=1;" parent="WIyWlLk6GJQsqaUBKTNV-1" vertex="1">
          <mxGeometry x="230" y="61" width="220" height="120" as="geometry" />
        </mxCell>
        <mxCell id="QhCB_V-oAfmcIfUx4NEu-3" value="- referencesToSubsystemObjects&lt;br&gt;- optionalAdditionalFacade" style="text;strokeColor=none;fillColor=none;align=left;verticalAlign=top;spacingLeft=4;spacingRight=4;overflow=hidden;rotatable=0;points=[[0,0.5],[1,0.5]];portConstraint=eastwest;whiteSpace=wrap;html=1;" parent="QhCB_V-oAfmcIfUx4NEu-2" vertex="1">
          <mxGeometry y="26" width="220" height="34" as="geometry" />
        </mxCell>
        <mxCell id="QhCB_V-oAfmcIfUx4NEu-4" value="" style="line;strokeWidth=1;fillColor=none;align=left;verticalAlign=middle;spacingTop=-1;spacingLeft=3;spacingRight=3;rotatable=0;labelPosition=right;points=[];portConstraint=eastwest;strokeColor=inherit;" parent="QhCB_V-oAfmcIfUx4NEu-2" vertex="1">
          <mxGeometry y="60" width="220" height="8" as="geometry" />
        </mxCell>
        <mxCell id="QhCB_V-oAfmcIfUx4NEu-5" value="+ operationA()&lt;br&gt;+ operationB()&lt;br&gt;+ operationC()" style="text;strokeColor=none;fillColor=none;align=left;verticalAlign=top;spacingLeft=4;spacingRight=4;overflow=hidden;rotatable=0;points=[[0,0.5],[1,0.5]];portConstraint=eastwest;whiteSpace=wrap;html=1;" parent="QhCB_V-oAfmcIfUx4NEu-2" vertex="1">
          <mxGeometry y="68" width="220" height="52" as="geometry" />
        </mxCell>
        <mxCell id="QhCB_V-oAfmcIfUx4NEu-10" value="Optional Additional Facade" style="swimlane;fontStyle=0;childLayout=stackLayout;horizontal=1;startSize=26;fillColor=none;horizontalStack=0;resizeParent=1;resizeParentMax=0;resizeLast=0;collapsible=1;marginBottom=0;whiteSpace=wrap;html=1;" parent="WIyWlLk6GJQsqaUBKTNV-1" vertex="1">
          <mxGeometry x="420" y="270" width="180" height="78" as="geometry" />
        </mxCell>
        <mxCell id="QhCB_V-oAfmcIfUx4NEu-11" value="+ operationD()" style="text;strokeColor=none;fillColor=none;align=left;verticalAlign=top;spacingLeft=4;spacingRight=4;overflow=hidden;rotatable=0;points=[[0,0.5],[1,0.5]];portConstraint=eastwest;whiteSpace=wrap;html=1;" parent="QhCB_V-oAfmcIfUx4NEu-10" vertex="1">
          <mxGeometry y="26" width="180" height="26" as="geometry" />
        </mxCell>
        <mxCell id="QhCB_V-oAfmcIfUx4NEu-12" value="..." style="text;strokeColor=none;fillColor=none;align=left;verticalAlign=top;spacingLeft=4;spacingRight=4;overflow=hidden;rotatable=0;points=[[0,0.5],[1,0.5]];portConstraint=eastwest;whiteSpace=wrap;html=1;" parent="QhCB_V-oAfmcIfUx4NEu-10" vertex="1">
          <mxGeometry y="52" width="180" height="26" as="geometry" />
        </mxCell>
        <mxCell id="QhCB_V-oAfmcIfUx4NEu-15" value="" style="endArrow=open;endSize=12;dashed=1;html=1;rounded=0;exitX=0.523;exitY=1.019;exitDx=0;exitDy=0;exitPerimeter=0;edgeStyle=orthogonalEdgeStyle;entryX=0.5;entryY=0;entryDx=0;entryDy=0;" parent="WIyWlLk6GJQsqaUBKTNV-1" source="QhCB_V-oAfmcIfUx4NEu-5" target="QhCB_V-oAfmcIfUx4NEu-10" edge="1">
          <mxGeometry x="0.375" y="30" width="160" relative="1" as="geometry">
            <mxPoint x="340" y="230" as="sourcePoint" />
            <mxPoint x="500" y="230" as="targetPoint" />
            <mxPoint as="offset" />
          </mxGeometry>
        </mxCell>
        <mxCell id="QhCB_V-oAfmcIfUx4NEu-24" value="Subsystem Class" style="html=1;whiteSpace=wrap;" parent="WIyWlLk6GJQsqaUBKTNV-1" vertex="1">
          <mxGeometry x="588" y="90" width="100" height="30" as="geometry" />
        </mxCell>
        <mxCell id="QhCB_V-oAfmcIfUx4NEu-25" value="Subsystem Class" style="html=1;whiteSpace=wrap;" parent="WIyWlLk6GJQsqaUBKTNV-1" vertex="1">
          <mxGeometry x="598" y="98" width="100" height="30" as="geometry" />
        </mxCell>
        <mxCell id="QhCB_V-oAfmcIfUx4NEu-26" value="Subsystem Class" style="html=1;whiteSpace=wrap;" parent="WIyWlLk6GJQsqaUBKTNV-1" vertex="1">
          <mxGeometry x="608" y="105" width="100" height="30" as="geometry" />
        </mxCell>
        <mxCell id="QhCB_V-oAfmcIfUx4NEu-27" value="Subsystem Class" style="html=1;whiteSpace=wrap;" parent="WIyWlLk6GJQsqaUBKTNV-1" vertex="1">
          <mxGeometry x="618" y="113" width="100" height="30" as="geometry" />
        </mxCell>
        <mxCell id="QhCB_V-oAfmcIfUx4NEu-28" value="Subsystem Class" style="html=1;whiteSpace=wrap;" parent="WIyWlLk6GJQsqaUBKTNV-1" vertex="1">
          <mxGeometry x="628" y="121" width="100" height="30" as="geometry" />
        </mxCell>
        <mxCell id="QhCB_V-oAfmcIfUx4NEu-35" value="" style="endArrow=open;endFill=1;endSize=12;html=1;rounded=0;exitX=1;exitY=0.5;exitDx=0;exitDy=0;" parent="WIyWlLk6GJQsqaUBKTNV-1" source="QhCB_V-oAfmcIfUx4NEu-1" edge="1">
          <mxGeometry width="160" relative="1" as="geometry">
            <mxPoint x="180" y="240" as="sourcePoint" />
            <mxPoint x="230" y="125" as="targetPoint" />
          </mxGeometry>
        </mxCell>
        <mxCell id="QhCB_V-oAfmcIfUx4NEu-36" value="" style="endArrow=open;endFill=1;endSize=12;html=1;rounded=0;exitX=1;exitY=0.5;exitDx=0;exitDy=0;" parent="WIyWlLk6GJQsqaUBKTNV-1" edge="1">
          <mxGeometry width="160" relative="1" as="geometry">
            <mxPoint x="450" y="124.89999999999999" as="sourcePoint" />
            <mxPoint x="535" y="125.1" as="targetPoint" />
          </mxGeometry>
        </mxCell>
      </root>
    </mxGraphModel>
  </diagram>
</mxfile>
